PathFileType	4	(X/Y/Z)	C:\Users\WrightLab\Desktop\Jo\P4V123.trc
DataRate	CameraRate	NumFrames	NumMarkers	Units	OrigDataRate	OrigDataStartFrame	OrigNumFrames
100.00	100.00	       16	19	mm	100.00	379	       504
Frame#	Time	Headset_Front			Headset_Back			Headset_Left			Headset_Right			Left_Shoulder			Right_Shoulder			Sternum			C7			Left Elbow			Right Elbow			Left Wrist			Right Wrist			Left ASIS			Right ASIS			S2			Left Knee			Right Knee			Left Ankle			Right Ankle			
		X1	Y1	Z1	X2	Y2	Z2	X3	Y3	Z3	X4	Y4	Z4	X5	Y5	Z5	X6	Y6	Z6	X7	Y7	Z7	X8	Y8	Z8	X9	Y9	Z9	X10	Y10	Z10	X11	Y11	Z11	X12	Y12	Z12	X13	Y13	Z13	X14	Y14	Z14	X15	Y15	Z15	X16	Y16	Z16	X17	Y17	Z17	X18	Y18	Z18	X19	Y19	Z19	

379	3.780	-569.02484	1670.18018	-1103.78137	-472.18750	1419.47107	-1104.49023							-634.65674	1485.21606	-1035.83423	-343.26953	1477.88818	-953.88843	-517.98981	1751.11743	-952.96899				-788.74701	1159.87915	-1135.01379	-640.96014	982.71674	-1110.36523	-687.45935	970.65991	-1362.45764	-199.49704	829.24683	-888.26709	-519.51880	1008.70203	-909.56470	-311.22839	979.46204	-1065.07300	-249.14070	1131.98328	-851.71722	-679.41431	509.70740	-984.51038	-244.34169	529.96649	-1149.87170	-702.83704	45.99071	-760.40594	-180.24504	43.96790	-1288.20166	
380	3.790	-563.22809	1668.60657	-1110.54504	-466.25125	1417.14539	-1112.67041							-628.59344	1483.43469	-1044.45410	-336.76944	1475.27820	-962.78900	-512.41754	1748.79565	-959.66663				-781.24200	1157.92432	-1144.45215	-636.40961	980.75403	-1117.93420	-677.34113	972.22766	-1372.65918	-196.02586	827.05200	-889.77356	-514.32159	1007.72168	-915.06909	-307.05035	977.56439	-1074.41553	-244.61681	1130.75720	-858.04980	-676.70068	508.88559	-989.33990	-237.06071	530.13440	-1159.41333	-702.20892	47.40384	-759.99207	-174.48537	41.78342	-1293.89539	
381	3.800	-557.39850	1667.01099	-1118.34399	-460.17062	1415.09070	-1122.21460							-622.49866	1481.75281	-1053.65552	-388.17331	1603.39783	-1228.70935	-506.92813	1746.42896	-967.05225				-774.60669	1155.95496	-1153.65027				-631.49597	978.95233	-1125.82263	-192.07199	824.49542	-890.76843	-506.41760	1003.15222	-928.67487	-301.82187	975.99738	-1083.40063	-239.41667	1128.40259	-863.66022	-673.61646	508.36450	-994.78497	-230.97845	530.37384	-1172.19788	-701.77826	49.77214	-761.28662	-169.27139	39.13223	-1303.04834	
382	3.810	-551.53705	1665.40344	-1125.31335	-453.84058	1412.84424	-1129.81482							-616.13690	1479.96423	-1062.69458	-382.01764	1602.99463	-1236.18115	-501.09497	1743.91150	-973.69110				-766.83173	1153.42664	-1162.52527				-626.08569	977.47937	-1134.32813	-188.07750	822.60773	-894.01288				-296.15591	974.07404	-1092.98413	-234.73470	1127.45544	-870.37134	-670.72925	507.95697	-1000.75323	-225.14935	530.68329	-1184.03040	-701.15393	50.48333	-761.09918	-162.81676	37.63579	-1304.02405	
383	3.820	-545.63013	1663.70349	-1132.94531	-447.54449	1410.58191	-1138.86450							-609.57953	1478.52148	-1071.39514	-375.97583	1602.58569	-1244.76270	-495.23138	1741.86487	-980.58118				-759.98926	1151.69934	-1171.92017				-620.55902	975.84717	-1143.14563	-184.00728	820.71051	-898.27747				-290.29791	972.07434	-1101.48584	-228.88129	1125.79797	-876.67761	-667.91364	508.05194	-1006.87207	-218.94032	531.25000	-1196.28088	-701.42896	52.70755	-760.86127	-159.95209	34.13233	-1306.28870	
384	3.830	-539.61218	1662.19055	-1140.27820	-441.11023	1408.56433	-1147.50183							-602.90436	1476.76099	-1080.29822	-369.86258	1601.87573	-1251.90955	-489.57291	1739.14514	-987.30011				-751.79144	1150.31958	-1180.92200				-614.77545	974.06805	-1151.07886	-180.64345	819.06525	-903.09070				-284.67697	971.22412	-1111.84534	-222.69672	1125.44238	-884.69269	-665.44391	508.92645	-1014.03900	-213.17343	530.69049	-1206.54871	-700.17120	56.69501	-764.09625	-156.66838	32.26285	-1306.41699	
385	3.840	-533.65259	1660.51965	-1147.11047	-434.34674	1407.17725	-1156.33582							-596.42242	1474.31323	-1087.34021				-483.89893	1736.94617	-994.57117				-743.89807	1147.77930	-1190.01465				-609.14447	972.71814	-1160.38892	-175.88934	816.23529	-908.23553	-482.72711	995.12799	-962.62366	-278.48553	970.09967	-1122.52783	-216.02844	1123.03137	-891.20258	-661.40936	508.49844	-1020.10327	-206.96466	529.77716	-1217.56689	-700.28754	58.64960	-765.03229	-153.91541	30.86342	-1310.13684	
386	3.850	-527.54742	1659.09961	-1154.54797	-427.54279	1405.42456	-1163.94043							-589.53552	1472.93176	-1096.93884				-478.13965	1734.74573	-1000.73944				-736.20508	1145.39392	-1198.39636				-604.01440	971.60022	-1169.62561	-171.82271	814.75305	-914.58722	-475.32333	994.25592	-972.72656	-272.56369	969.70050	-1132.67212	-210.50783	1120.08704	-899.48334	-657.03351	508.35187	-1026.83459	-199.82153	528.33984	-1228.10156	-698.97742	62.11914	-765.78552	-151.04213	27.74381	-1315.90601	
387	3.860	-521.48401	1657.81763	-1161.58862	-420.82309	1404.17273	-1172.49805							-582.79535	1471.74768	-1105.49695										-727.76324	1143.59009	-1206.36255				-597.11572	970.56500	-1178.96484	-166.49768	812.63477	-922.83740				-266.46829	968.80042	-1142.96545	-203.71210	1119.61377	-910.01746	-652.79266	509.69766	-1034.33960	-193.86658	526.99579	-1236.38550	-698.23431	64.96512	-766.93951	-147.98560	26.10598	-1320.16760	
388	3.870	-515.33698	1657.31665	-1168.56860	-413.90433	1403.92603	-1181.40344							-576.21899	1470.54749	-1112.73413	-466.28824	1731.98364	-1014.28870							-719.48712	1141.75867	-1215.07593				-590.52802	969.49475	-1187.84448	-161.25053	811.40839	-931.07117				-260.08569	967.27496	-1152.93689	-197.11604	1117.68713	-917.06854	-648.74347	509.95465	-1041.19702	-187.00127	524.86017	-1245.17065	-697.22479	70.71540	-769.85034	-144.87415	25.36189	-1321.18372	
389	3.880	-509.25153	1656.79028	-1175.62598	-407.11435	1403.48450	-1188.73291							-569.68903	1469.87622	-1120.99658	-460.66150	1731.91589	-1021.38293							-711.11517	1140.00220	-1223.36218				-584.76440	968.35913	-1197.32898	-156.07019	809.76355	-939.01385				-253.94852	967.00195	-1161.38696	-190.22038	1116.80823	-925.28302	-643.48596	510.73163	-1049.06763	-181.72899	523.66724	-1253.38574	-697.41547	72.59399	-774.10516	-145.64601	24.94186	-1326.70313	
390	3.890	-503.16132	1656.58374	-1182.28320	-400.08481	1403.87061	-1197.13232							-562.97760	1469.81213	-1128.95520	-454.63159	1731.71326	-1027.86633							-701.89813	1137.99426	-1230.70459				-577.41718	968.24927	-1207.06104	-149.60664	809.12732	-950.29620				-247.52910	967.64514	-1171.18018	-182.80945	1115.19556	-935.48969	-638.40924	511.95660	-1058.14014	-174.61861	523.17065	-1266.48315	-696.15747	78.36784	-777.44562	-143.88029	25.84016	-1324.66553	
391	3.900	-497.01740	1656.86670	-1189.41858	-393.14679	1404.38184	-1205.14331							-556.56573	1469.67529	-1138.01501	-564.80017	964.48853	-1464.79199							-692.94940	1136.59314	-1238.40015				-570.80457	968.30023	-1217.51514	-142.59181	807.94739	-961.47870				-240.89682	969.39832	-1180.76501	-175.70967	1114.52258	-944.58356	-633.36639	513.16174	-1067.81482	-166.92157	522.76129	-1274.90820	-694.61273	83.64327	-781.44055	-142.25677	24.00738	-1329.18811	
392	3.910	-490.90259	1657.08997	-1195.76245	-386.10876	1405.50574	-1214.08435							-549.83533	1470.39917	-1146.06030	-555.11127	961.48267	-1470.37769							-683.84973	1135.95630	-1246.94678	-435.42023	993.57117	-1030.94617	-563.10211	967.54932	-1227.29810	-136.82387	806.65204	-972.27313				-233.94614	971.04156	-1188.01013	-168.50827	1113.75403	-954.29279	-627.98560	514.73810	-1077.97388	-158.65947	525.17902	-1280.55957	-692.61743	89.03701	-783.32788	-140.62897	26.12495	-1329.06653	
393	3.920	-484.70627	1658.06885	-1202.99915	-379.04425	1406.51868	-1221.45715							-543.48303	1470.68994	-1154.57410	-545.63812	958.32617	-1475.73804							-674.76593	1134.60803	-1253.63940				-555.79059	967.64581	-1237.32068	-129.82852	806.64380	-985.36780				-226.52129	972.43970	-1195.51257	-160.51028	1113.31323	-965.14539	-622.50439	515.49500	-1088.38745	-152.35922	525.65027	-1289.71350	-689.23035	96.04881	-785.31482	-140.29227	26.70996	-1328.79224	
394	3.930	-478.67950	1659.08557	-1210.08167	-372.01474	1407.79443	-1229.11304							-536.92944	1471.64380	-1162.88953	-536.35565	954.91785	-1480.71472							-665.53394	1134.44788	-1261.18201				-548.59589	968.07794	-1247.27771	-122.12032	806.46942	-1000.86243				-218.72922	973.43903	-1201.80066	-153.06638	1113.20361	-975.08984	-617.05731	517.09314	-1101.38013	-144.90662	531.55664	-1288.42859	-687.89038	100.54638	-791.82715	-140.21028	26.30388	-1330.63867	
